if (_typeface_js && _typeface_js.loadFace) _typeface_js.loadFace({"glyphs":{"S":{"x_min":47.671875,"x_max":712,"ha":753,"o":"m 712 288 q 696 389 712 345 q 646 467 680 433 q 556 531 611 502 q 426 590 502 560 q 354 620 382 606 q 310 647 326 634 q 289 675 295 660 q 283 708 283 689 q 308 762 283 741 q 387 783 334 783 q 505 762 442 783 q 633 705 569 742 l 668 905 q 541 952 607 935 q 385 969 476 969 q 258 950 317 969 q 157 896 200 932 q 89 807 114 860 q 64 685 64 755 q 79 583 64 626 q 127 506 95 540 q 211 446 160 473 q 333 391 262 419 q 413 356 382 372 q 463 327 445 341 q 486 297 480 312 q 493 261 493 281 q 461 196 493 218 q 379 175 430 175 q 232 199 309 175 q 81 263 155 223 l 47 61 q 200 8 119 27 q 375 -11 280 -11 q 506 6 445 -11 q 613 60 567 23 q 685 154 658 97 q 712 288 712 211 "},"/":{"x_min":-49,"x_max":705.0625,"ha":721,"o":"m 705 932 l 536 970 l -49 -138 l 119 -176 l 705 932 "},"K":{"x_min":86,"x_max":885.21875,"ha":885,"o":"m 885 29 l 540 515 l 872 958 l 614 958 l 319 548 l 319 958 l 86 958 l 86 0 l 319 0 l 319 445 l 634 -9 l 885 29 "},"7":{"x_min":39.109375,"x_max":687,"ha":736,"o":"m 687 758 l 687 938 l 39 938 l 67 745 l 452 745 l 130 28 l 346 -10 l 687 758 "},"d":{"x_min":41,"x_max":670,"ha":741,"o":"m 670 0 l 670 1001 l 464 968 l 464 661 q 402 678 435 672 q 322 684 368 684 q 216 663 266 684 q 126 600 166 643 q 64 486 87 556 q 41 320 41 417 q 59 171 41 234 q 110 67 77 108 q 186 6 143 26 q 281 -14 230 -14 q 393 17 347 -14 q 473 88 439 49 l 487 0 l 670 0 m 464 241 q 409 191 436 210 q 349 172 382 172 q 277 210 306 172 q 248 335 248 248 q 281 477 248 434 q 367 520 315 520 q 420 515 400 520 q 464 500 440 511 l 464 241 "},",":{"x_min":29.9375,"x_max":322.578125,"ha":351,"o":"m 322 239 l 89 239 l 29 -176 l 152 -205 l 322 239 "},"Y":{"x_min":11.0625,"x_max":906.5625,"ha":915,"o":"m 906 958 l 662 958 l 462 569 l 258 967 l 11 933 l 335 349 l 335 0 l 569 0 l 569 352 l 906 958 "},"E":{"x_min":86,"x_max":683.859375,"ha":729,"o":"m 683 0 l 683 190 l 315 190 l 315 397 l 617 397 l 587 593 l 315 593 l 315 768 l 671 768 l 671 958 l 86 958 l 86 0 l 683 0 "},"y":{"x_min":12.25,"x_max":683.28125,"ha":694,"o":"m 683 680 l 484 680 l 362 260 l 232 689 l 12 663 l 254 -1 l 246 -22 q 201 -73 230 -58 q 137 -88 172 -88 q 89 -85 107 -88 q 55 -76 72 -82 l 81 -244 q 112 -250 96 -247 q 159 -253 127 -253 q 257 -240 213 -253 q 335 -200 300 -228 q 396 -126 370 -172 q 446 -14 423 -80 l 683 680 "},"\"":{"x_min":63.96875,"x_max":643.8125,"ha":708,"o":"m 643 938 l 397 938 l 453 550 l 583 521 l 643 938 m 310 938 l 63 938 l 118 550 l 250 521 l 310 938 "},"‹":{"x_min":29.9375,"x_max":404.25,"ha":453,"o":"m 404 680 l 255 680 l 29 339 l 262 -11 l 396 16 l 255 339 l 404 680 "},"„":{"x_min":65,"x_max":614.640625,"ha":654,"o":"m 308 239 l 65 239 l 65 -169 l 171 -198 l 308 239 m 614 239 l 371 239 l 371 -169 l 478 -198 l 614 239 "},"g":{"x_min":5,"x_max":716.703125,"ha":726,"o":"m 210 11 q 256 1 235 7 q 315 -5 278 -5 l 414 -5 q 489 -24 468 -12 q 511 -61 511 -36 q 467 -120 511 -95 q 342 -145 423 -145 q 211 -122 252 -145 q 171 -64 171 -100 q 210 11 171 -28 m 428 456 q 402 375 428 407 q 330 344 377 344 q 260 373 285 344 q 235 452 235 403 q 260 533 235 500 q 330 567 285 567 q 402 535 376 567 q 428 456 428 504 m 532 625 q 443 673 494 656 q 328 691 392 691 q 217 674 269 691 q 128 626 165 657 q 70 550 91 595 q 49 449 49 505 q 81 332 49 382 q 176 252 113 281 q 77 130 77 195 q 113 54 77 88 q 31 -11 58 22 q 5 -90 5 -46 q 28 -160 5 -129 q 95 -211 52 -190 q 196 -242 138 -232 q 326 -253 255 -253 q 474 -235 406 -253 q 592 -185 542 -217 q 671 -107 643 -153 q 699 -6 699 -62 q 642 108 699 72 q 485 155 585 143 l 362 155 q 308 163 328 159 q 276 171 288 166 q 261 180 265 175 q 257 193 257 186 q 273 226 257 208 q 335 222 303 222 q 442 237 392 222 q 530 283 492 253 q 590 357 568 313 q 612 456 612 400 q 599 528 612 492 q 618 530 599 530 q 658 530 636 530 q 698 530 679 530 q 716 531 716 530 l 690 686 l 532 625 "},"–":{"x_min":56,"x_max":562,"ha":618,"o":"m 562 305 l 562 501 l 56 501 l 56 305 l 562 305 "},"ƒ":{"x_min":44.984375,"x_max":569,"ha":606,"o":"m 172 635 l 69 635 l 44 461 l 145 461 l 74 0 l 294 0 l 367 461 l 520 461 l 520 635 l 394 635 l 401 680 q 433 754 409 731 q 503 777 457 777 q 569 770 537 777 l 569 942 q 519 947 545 947 q 460 947 492 947 q 353 935 400 947 q 272 896 306 923 q 216 824 238 869 q 185 715 194 780 l 172 635 "},"e":{"x_min":38,"x_max":646,"ha":687,"o":"m 646 341 q 628 479 646 414 q 574 591 610 543 q 483 666 538 639 q 351 694 427 694 q 225 669 283 694 q 126 598 168 645 q 61 486 85 552 q 38 337 38 420 q 63 179 38 245 q 133 70 88 113 q 242 6 179 27 q 380 -14 305 -14 q 525 6 459 -14 q 646 62 591 26 l 625 209 q 516 158 569 177 q 406 139 462 139 q 295 172 338 139 q 243 287 251 206 l 643 287 q 646 310 646 295 q 646 341 646 325 m 446 402 l 245 402 q 274 519 245 481 q 348 558 303 558 q 446 402 446 558 "},"J":{"x_min":26.078125,"x_max":501,"ha":579,"o":"m 501 291 l 501 957 l 267 957 l 267 328 q 232 217 267 248 q 136 187 197 187 q 73 191 96 187 q 26 202 49 195 l 57 2 q 111 -6 76 -3 q 186 -10 147 -10 q 311 6 253 -10 q 411 59 369 23 q 477 152 453 95 q 501 291 501 209 "},"|":{"x_min":118,"x_max":291,"ha":408,"o":"m 291 -230 l 291 1002 l 118 974 l 118 -258 l 291 -230 "},"^":{"x_min":78.9375,"x_max":536.28125,"ha":618,"o":"m 536 777 l 405 963 l 217 963 l 78 759 l 209 759 l 310 839 l 415 753 l 536 777 "},"q":{"x_min":41,"x_max":666,"ha":737,"o":"m 666 -226 l 666 639 q 533 675 606 661 q 378 688 460 688 q 239 666 302 688 q 132 598 177 643 q 64 484 88 553 q 41 320 41 414 q 59 171 41 234 q 109 67 77 108 q 185 6 141 26 q 281 -14 230 -14 q 384 13 341 -14 q 460 73 427 41 l 460 -258 l 666 -226 m 460 237 q 405 190 432 209 q 347 172 378 172 q 275 210 303 172 q 248 335 248 248 q 285 477 248 435 q 383 519 322 519 q 423 516 407 519 q 460 506 439 513 l 460 237 "},"b":{"x_min":71,"x_max":695,"ha":737,"o":"m 695 358 q 676 507 695 444 q 626 612 658 570 q 549 673 594 653 q 455 694 505 694 q 351 666 395 694 q 277 605 308 638 l 277 1002 l 71 968 l 71 40 q 202 4 129 17 q 357 -8 275 -8 q 496 13 434 -8 q 603 80 558 35 q 671 194 647 125 q 695 358 695 263 m 489 344 q 450 201 489 243 q 351 160 412 160 q 313 162 328 160 q 277 172 297 165 l 277 441 q 329 488 302 470 q 389 507 357 507 q 461 468 433 507 q 489 344 489 430 "},"D":{"x_min":86,"x_max":907,"ha":960,"o":"m 907 480 q 875 675 907 587 q 780 826 843 763 q 624 923 717 888 q 408 958 531 958 l 86 958 l 86 0 l 415 0 q 625 34 533 0 q 780 133 717 69 q 875 285 843 197 q 907 480 907 373 m 673 479 q 653 345 673 401 q 600 255 634 290 q 515 202 565 219 q 403 185 466 185 l 319 185 l 319 773 l 403 773 q 513 755 463 773 q 598 701 562 738 q 653 609 633 664 q 673 479 673 553 "},"z":{"x_min":39,"x_max":601.328125,"ha":635,"o":"m 601 0 l 575 164 l 293 164 l 585 520 l 585 680 l 51 680 l 75 516 l 330 516 l 39 158 l 39 0 l 601 0 "},"w":{"x_min":16.328125,"x_max":973.203125,"ha":987,"o":"m 973 680 l 782 680 l 694 284 l 598 680 l 413 680 l 319 283 l 228 689 l 16 663 l 198 0 l 396 0 l 492 388 l 590 0 l 786 0 l 973 680 "},"$":{"x_min":39.5,"x_max":697,"ha":747,"o":"m 498 933 l 511 1025 l 412 1047 l 397 945 l 383 945 q 147 873 231 945 q 64 674 64 802 q 81 570 64 613 q 131 495 98 527 q 213 440 164 463 q 325 398 262 417 l 290 161 q 181 189 235 169 q 65 243 126 209 l 39 73 q 143 29 89 47 q 257 1 197 11 l 237 -147 l 336 -169 l 359 -7 l 360 -7 q 496 10 434 -7 q 603 63 558 27 q 672 153 647 98 q 697 281 697 208 q 680 387 697 342 q 632 466 664 432 q 551 524 600 499 q 436 570 502 549 l 466 772 q 555 745 513 763 q 635 704 597 728 l 664 875 q 585 910 627 895 q 498 933 544 925 m 375 157 l 407 372 q 491 321 469 348 q 513 257 513 295 q 375 157 513 157 m 381 784 l 354 596 q 269 641 291 618 q 248 698 248 663 q 275 761 248 738 q 366 784 303 784 l 381 784 "},"™":{"x_min":36.71875,"x_max":1039,"ha":1106,"o":"m 1039 479 l 1039 958 l 864 958 l 773 645 l 682 958 l 502 958 l 502 479 l 605 479 l 605 777 l 702 476 l 819 476 l 916 777 l 916 479 l 1039 479 m 452 854 l 437 958 l 36 958 l 36 854 l 176 854 l 176 479 l 303 479 l 303 854 l 452 854 "},"\\":{"x_min":14.96875,"x_max":770.390625,"ha":721,"o":"m 770 -140 l 185 970 l 14 932 l 600 -176 l 770 -140 "},"’":{"x_min":72,"x_max":319.71875,"ha":351,"o":"m 319 958 l 72 958 l 72 549 l 183 520 l 319 958 "},"~":{"x_min":50.359375,"x_max":506.328125,"ha":557,"o":"m 506 490 l 409 514 q 390 465 400 478 q 366 452 381 452 q 332 457 349 452 q 276 481 315 463 q 227 501 247 493 q 181 509 206 509 q 96 465 129 509 q 50 314 63 422 l 147 293 q 165 342 155 329 q 190 355 175 355 q 222 348 205 355 q 279 325 239 342 q 328 305 307 313 q 375 298 349 298 q 459 341 427 298 q 506 490 491 384 "},"-":{"x_min":56,"x_max":428,"ha":482,"o":"m 428 304 l 428 504 l 56 504 l 56 304 l 428 304 "},"Q":{"x_min":52,"x_max":949,"ha":1001,"o":"m 949 494 q 917 692 949 604 q 826 844 885 781 q 684 942 767 908 q 501 976 601 976 q 316 939 399 976 q 175 837 234 903 q 83 680 115 772 q 52 477 52 588 q 133 171 52 287 q 378 -5 215 54 l 905 -197 l 949 4 l 729 75 q 890 237 832 131 q 949 494 949 343 m 715 477 q 700 350 715 408 q 659 250 686 292 q 591 185 632 208 q 500 163 551 163 q 409 185 449 163 q 342 250 369 208 q 299 350 314 292 q 285 477 285 408 q 299 604 285 547 q 341 703 313 662 q 408 767 369 744 q 500 790 448 790 q 590 767 550 790 q 658 703 630 744 q 700 604 686 662 q 715 477 715 547 "},"M":{"x_min":93,"x_max":1121,"ha":1214,"o":"m 1121 0 l 1121 958 l 794 958 l 610 298 l 427 958 l 93 958 l 93 0 l 282 0 l 282 637 l 480 -1 l 699 -1 l 898 637 l 898 0 l 1121 0 "},"C":{"x_min":52,"x_max":775,"ha":824,"o":"m 775 53 l 745 247 q 640 199 691 217 q 531 181 588 181 q 433 200 478 181 q 355 257 388 219 q 303 350 321 294 q 285 478 285 406 q 348 698 285 620 q 519 776 412 776 q 632 753 580 776 q 728 698 685 731 l 761 911 q 645 957 709 940 q 501 974 581 974 q 318 937 400 974 q 176 836 235 901 q 84 679 117 771 q 52 477 52 588 q 83 273 52 364 q 173 116 114 181 q 316 17 231 52 q 508 -17 401 -17 q 651 2 585 -17 q 775 53 717 21 "},"[":{"x_min":97,"x_max":521.3125,"ha":569,"o":"m 521 -144 l 499 -15 l 294 -15 l 294 830 l 514 830 l 514 958 l 97 958 l 97 -144 l 521 -144 "},"L":{"x_min":86,"x_max":638.859375,"ha":661,"o":"m 638 0 l 607 205 l 319 205 l 319 957 l 86 957 l 86 0 l 638 0 "},"!":{"x_min":73.671875,"x_max":329.703125,"ha":402,"o":"m 329 957 l 73 957 l 140 330 l 265 358 l 329 957 m 312 0 l 312 239 l 90 239 l 90 0 l 312 0 "}," ":{"x_min":0,"x_max":0,"ha":284},"{":{"x_min":33.609375,"x_max":638.140625,"ha":689,"o":"m 638 -144 l 617 -15 l 511 -15 q 441 5 464 -15 q 419 64 419 26 q 428 144 419 105 q 437 229 437 183 q 396 347 437 306 q 281 405 356 388 l 281 408 q 396 465 356 424 q 437 584 437 506 q 428 669 437 631 q 419 749 419 707 q 511 830 419 830 l 632 830 l 632 958 l 428 958 q 269 909 322 958 q 216 775 216 860 q 225 683 216 727 q 234 592 234 639 q 195 497 234 523 q 89 472 157 472 l 33 472 l 54 343 l 88 343 q 195 316 156 343 q 234 220 234 290 q 225 130 234 175 q 216 37 216 86 q 269 -95 216 -46 q 428 -144 322 -144 l 638 -144 "},"X":{"x_min":16.328125,"x_max":882,"ha":900,"o":"m 313 487 l 16 0 l 254 0 l 439 327 l 632 -9 l 882 30 q 860 65 882 30 q 805 154 838 101 q 734 268 773 206 q 662 383 695 330 q 608 470 630 435 q 586 505 586 505 l 860 958 l 620 958 l 458 665 q 441 696 458 665 q 398 772 423 728 q 348 862 374 816 q 306 936 322 908 q 288 967 289 964 l 40 927 l 313 487 "},"P":{"x_min":86,"x_max":757,"ha":782,"o":"m 757 645 q 658 879 757 801 q 388 958 559 958 l 86 958 l 86 0 l 318 0 l 318 318 l 378 318 q 533 338 464 318 q 652 400 603 359 q 729 502 702 441 q 757 645 757 563 m 531 641 q 489 531 531 566 q 370 497 448 497 l 316 497 l 316 779 l 374 779 q 531 641 531 779 "},"%":{"x_min":52,"x_max":1165,"ha":1217,"o":"m 508 674 q 490 793 508 741 q 442 879 472 844 q 369 931 411 913 q 280 950 328 950 q 191 931 233 950 q 118 878 150 913 q 69 791 87 843 q 52 673 52 740 q 69 554 52 606 q 118 467 87 502 q 190 415 148 433 q 280 397 233 397 q 369 415 328 397 q 442 468 411 433 q 490 556 472 503 q 508 674 508 608 m 963 920 l 841 948 l 253 18 l 374 -9 l 963 920 m 365 674 q 344 557 365 599 q 280 515 324 515 q 215 556 237 515 q 194 673 194 598 q 215 791 194 749 q 280 833 237 833 q 343 791 322 833 q 365 674 365 749 m 1165 265 q 1147 383 1165 331 q 1098 470 1129 435 q 1026 522 1068 504 q 936 541 983 541 q 847 522 888 541 q 775 469 805 504 q 726 382 744 434 q 709 263 709 330 q 726 145 709 197 q 775 59 744 94 q 847 7 805 25 q 936 -11 888 -11 q 1025 7 983 -11 q 1098 60 1067 25 q 1147 147 1129 95 q 1165 265 1165 198 m 1022 265 q 1000 148 1022 190 q 936 106 979 106 q 872 147 894 106 q 851 263 851 189 q 872 380 851 338 q 936 423 893 423 q 1000 381 978 423 q 1022 265 1022 339 "},"#":{"x_min":52,"x_max":865,"ha":917,"o":"m 321 196 l 508 196 l 478 -2 l 607 -2 l 638 196 l 844 196 l 817 372 l 666 372 l 697 567 l 865 567 l 865 743 l 723 743 l 751 922 l 626 951 l 594 743 l 407 743 l 438 941 l 308 941 l 276 743 l 72 743 l 101 567 l 249 567 l 220 372 l 52 372 l 52 196 l 193 196 l 166 16 l 290 -12 l 321 196 m 378 571 l 569 571 l 538 368 l 347 368 l 378 571 "},"_":{"x_min":-3,"x_max":620,"ha":617,"o":"m 620 -144 l 620 -47 l -3 -47 l -3 -144 l 620 -144 "},"+":{"x_min":73,"x_max":705,"ha":779,"o":"m 705 388 l 705 552 l 472 552 l 472 797 l 306 797 l 306 552 l 73 552 l 73 388 l 306 388 l 306 142 l 472 142 l 472 388 l 705 388 "},"":{"x_min":68,"x_max":877,"ha":945,"o":"m 877 -278 l 877 1000 l 739 1000 l 699 1110 l 245 1110 l 204 1000 l 68 1000 l 68 231 q 99 217 87 231 q 111 187 111 204 q 99 155 111 167 q 68 143 87 143 l 68 -278 l 349 -278 l 360 -258 l 582 -258 l 593 -278 l 877 -278 m 544 781 l 623 781 l 623 762 l 565 762 l 565 670 l 616 670 l 616 650 l 565 650 l 565 542 l 544 542 l 544 781 m 250 781 l 271 781 l 271 671 l 335 671 l 335 781 l 355 781 l 355 542 l 335 542 l 335 652 l 271 652 l 271 542 l 250 542 l 250 781 m 626 546 l 626 568 q 639 562 631 565 q 653 560 647 560 q 675 590 675 560 l 675 781 l 697 781 l 697 590 q 654 541 697 541 q 638 542 647 541 q 626 546 630 543 m 712 448 l 722 448 l 722 414 l 751 448 l 765 448 l 740 419 l 766 384 l 754 384 l 732 412 l 722 402 l 722 384 l 712 384 l 712 448 m 664 405 l 647 405 l 647 384 l 637 384 l 637 448 l 665 448 q 681 442 676 448 q 687 428 687 435 q 673 407 687 412 l 689 384 l 678 384 l 664 405 m 579 383 q 556 392 564 383 q 548 416 548 402 q 556 438 548 428 q 579 449 564 449 q 603 438 594 449 q 612 416 612 428 q 603 392 612 402 q 579 383 594 383 m 503 416 l 520 448 l 533 448 l 508 407 l 508 384 l 498 384 l 498 407 l 473 448 l 486 448 l 503 416 m 263 448 l 308 448 l 308 438 l 273 438 l 273 421 l 303 421 l 303 412 l 274 412 l 274 394 l 308 394 l 308 384 l 263 384 l 263 448 m 180 448 l 189 448 l 223 403 l 223 448 l 234 448 l 234 384 l 224 384 l 190 428 l 190 384 l 180 384 l 180 448 m 328 448 l 339 448 l 352 399 l 353 399 l 368 448 l 379 448 l 392 399 l 394 399 l 407 448 l 419 448 l 399 383 l 388 383 l 373 430 l 372 430 l 359 383 l 348 383 l 328 448 m 445 664 q 465 709 465 686 q 460 727 465 720 q 447 735 455 735 q 434 727 439 735 q 429 709 429 720 q 433 688 429 697 q 445 664 438 678 m 465 586 l 438 640 q 418 594 418 619 q 424 568 418 579 q 440 557 430 557 q 454 566 447 557 q 465 586 462 575 m 664 414 q 677 426 677 414 q 663 438 677 438 l 648 438 l 648 414 l 664 414 m 579 392 q 594 398 588 392 q 601 415 601 405 q 594 431 601 423 q 579 439 588 439 q 564 431 569 439 q 559 415 559 423 q 564 398 559 405 q 579 392 569 392 m 475 607 q 481 627 477 616 q 487 648 485 638 l 504 644 q 497 616 502 629 q 487 590 493 602 l 508 549 l 494 538 l 477 571 l 476 571 q 461 548 470 558 q 439 538 453 538 q 408 553 420 538 q 397 592 397 568 q 429 654 397 629 q 415 681 420 670 q 409 708 409 693 q 419 737 409 724 q 447 751 429 751 q 476 737 467 751 q 485 708 485 724 q 475 677 485 692 q 453 650 466 663 l 475 607 "},"‚":{"x_min":65,"x_max":311.359375,"ha":351,"o":"m 311 239 l 65 239 l 65 -169 l 175 -198 l 311 239 "},")":{"x_min":25.4375,"x_max":492,"ha":555,"o":"m 492 441 q 470 614 492 535 q 407 759 448 692 q 309 886 366 827 q 183 1002 252 945 l 25 964 q 133 836 88 898 q 208 713 179 775 q 251 584 237 650 q 265 438 265 517 q 252 303 265 365 q 213 190 239 242 q 152 93 188 138 q 67 5 115 48 l 88 -137 q 260 -33 184 -91 q 387 95 335 24 q 465 252 438 166 q 492 441 492 338 "},"'":{"x_min":63.96875,"x_max":314.421875,"ha":378,"o":"m 314 938 l 63 938 l 118 550 l 255 521 l 314 938 "},"}":{"x_min":48.5,"x_max":652.390625,"ha":688,"o":"m 652 343 l 631 472 l 597 472 q 489 497 528 472 q 451 592 451 523 q 460 683 451 639 q 470 775 470 727 q 416 909 470 860 q 257 958 363 958 l 48 958 l 67 830 l 176 830 q 269 750 269 830 q 259 670 269 709 q 250 584 250 631 q 290 465 250 506 q 405 408 330 424 l 405 405 q 290 347 330 388 q 250 229 250 306 q 259 143 250 183 q 269 62 269 104 q 176 -15 269 -15 l 53 -15 l 53 -144 l 257 -144 q 416 -95 363 -144 q 470 37 470 -46 q 460 130 470 86 q 451 220 451 175 q 489 316 451 290 q 596 343 528 343 l 652 343 "},"‰":{"x_min":73,"x_max":1014,"ha":1088,"o":"m 1014 480 q 979 682 1014 591 q 883 838 945 773 q 735 939 821 903 q 544 976 649 976 q 352 939 439 976 q 204 837 266 903 q 107 680 142 771 q 73 477 73 588 q 107 275 73 366 q 203 119 141 184 q 351 18 265 54 q 542 -18 437 -18 q 733 18 646 -18 q 882 120 820 54 q 979 277 944 186 q 1014 480 1014 369 m 954 479 q 922 287 954 370 q 836 147 891 204 q 706 61 781 90 q 544 32 631 32 q 382 61 457 32 q 252 147 307 90 q 164 287 196 204 q 133 479 133 370 q 164 670 133 587 q 250 810 195 753 q 380 896 305 867 q 544 926 455 926 q 704 896 629 926 q 834 810 779 867 q 922 670 890 753 q 954 479 954 587 m 667 430 q 735 492 711 454 q 759 583 759 530 q 701 715 759 669 q 538 762 644 762 l 348 762 l 348 214 l 495 214 l 495 393 l 526 393 l 647 207 l 801 235 l 667 430 m 530 652 q 617 574 617 652 q 530 496 617 496 l 493 496 l 493 652 l 530 652 "},"a":{"x_min":38,"x_max":625,"ha":690,"o":"m 625 0 l 625 454 q 556 638 625 585 q 349 691 488 691 q 202 676 268 691 q 78 638 136 661 l 103 479 q 208 517 156 503 q 318 531 261 531 q 419 445 419 531 l 419 432 q 130 354 223 414 q 38 174 38 293 q 88 33 38 81 q 219 -14 138 -14 q 338 12 288 -14 q 428 84 387 39 l 442 0 l 625 0 m 419 187 q 304 136 362 136 q 258 153 276 136 q 241 202 241 170 q 249 244 241 224 q 277 281 257 264 q 332 310 298 298 q 419 331 366 323 l 419 187 "},"T":{"x_min":34,"x_max":809.75,"ha":829,"o":"m 809 756 l 777 957 l 34 957 l 34 756 l 294 756 l 294 0 l 528 0 l 528 756 l 809 756 "},"—":{"x_min":56,"x_max":1180,"ha":1236,"o":"m 1180 307 l 1180 500 l 56 500 l 56 307 l 1180 307 "},"=":{"x_min":99,"x_max":705,"ha":803,"o":"m 705 553 l 705 720 l 99 720 l 99 553 l 705 553 m 705 219 l 705 384 l 99 384 l 99 219 l 705 219 "},"N":{"x_min":86,"x_max":874,"ha":960,"o":"m 874 0 l 874 958 l 658 958 l 658 422 l 311 958 l 86 958 l 86 0 l 302 0 l 302 573 l 672 0 l 874 0 "},"2":{"x_min":54,"x_max":703.703125,"ha":751,"o":"m 703 0 l 675 183 l 326 183 l 510 364 q 585 442 552 405 q 640 517 617 479 q 674 595 662 554 q 686 683 686 635 q 604 881 686 810 q 379 953 522 953 q 207 926 281 953 q 74 860 134 900 l 101 663 q 222 733 161 707 q 345 759 284 759 q 433 733 402 759 q 464 659 464 707 q 440 574 464 611 q 371 488 417 536 l 54 164 l 54 0 l 703 0 "},"j":{"x_min":-49.25,"x_max":295,"ha":358,"o":"m 295 881 q 261 964 295 933 q 178 995 228 995 q 95 964 129 995 q 61 881 61 933 q 95 799 61 830 q 178 769 129 769 q 261 799 228 769 q 295 881 295 830 m 282 -18 l 282 679 l 75 679 l 75 -2 q 55 -70 75 -52 q 0 -89 35 -89 q -26 -87 -15 -89 q -49 -83 -38 -86 l -24 -246 q 6 -251 -13 -251 q 48 -251 27 -251 q 143 -238 100 -251 q 217 -198 186 -226 q 264 -126 247 -170 q 282 -18 282 -82 "},"Z":{"x_min":54,"x_max":789.25,"ha":834,"o":"m 789 0 l 759 189 l 338 189 l 777 785 l 777 958 l 73 958 l 101 769 l 492 769 l 54 172 l 54 0 l 789 0 "},"u":{"x_min":67,"x_max":661,"ha":732,"o":"m 661 0 l 661 680 l 455 680 l 455 232 q 399 187 427 204 q 342 171 372 171 q 289 194 305 171 q 273 254 273 218 l 273 680 l 67 680 l 67 195 q 114 40 67 95 q 256 -14 162 -14 q 368 16 318 -14 q 464 93 418 47 l 479 0 l 661 0 "},"1":{"x_min":23.390625,"x_max":462,"ha":555,"o":"m 462 0 l 462 940 l 258 940 l 23 828 l 47 648 l 233 722 l 233 0 l 462 0 "},"›":{"x_min":49,"x_max":423.3125,"ha":453,"o":"m 423 338 l 190 691 l 57 662 l 196 338 l 49 0 l 197 0 l 423 338 "},"k":{"x_min":71,"x_max":683.96875,"ha":688,"o":"m 683 20 l 466 370 l 675 680 l 455 680 l 277 401 l 277 1002 l 71 968 l 71 0 l 277 0 l 277 316 l 470 -9 l 683 20 "},"<":{"x_min":78,"x_max":686,"ha":779,"o":"m 686 87 l 686 269 l 280 470 l 686 670 l 686 850 l 78 542 l 78 395 l 686 87 "},"t":{"x_min":19,"x_max":467.53125,"ha":493,"o":"m 467 3 l 441 175 q 392 169 417 169 q 311 249 311 169 l 311 509 l 463 509 l 437 680 l 311 680 l 311 914 l 107 882 l 107 680 l 19 680 l 19 509 l 107 509 l 107 216 q 124 107 107 150 q 174 37 142 63 q 251 1 206 12 q 349 -10 296 -10 q 416 -6 389 -10 q 467 3 443 -3 "},"W":{"x_min":25.859375,"x_max":1323,"ha":1348,"o":"m 1323 958 l 1092 958 l 958 358 l 805 958 l 571 958 l 419 358 l 277 967 l 25 927 l 273 0 l 507 0 l 669 617 l 831 0 l 1067 0 l 1323 958 "},"v":{"x_min":13.609375,"x_max":679.203125,"ha":690,"o":"m 679 680 l 479 680 l 357 259 l 234 689 l 13 663 l 240 -3 l 446 -3 l 679 680 "},">":{"x_min":93,"x_max":701,"ha":779,"o":"m 701 395 l 701 542 l 93 850 l 93 669 l 498 467 l 93 269 l 93 87 l 701 395 "},"s":{"x_min":43.484375,"x_max":592,"ha":631,"o":"m 592 209 q 579 290 592 256 q 538 348 567 323 q 464 392 510 373 q 352 430 418 412 q 294 448 316 439 q 260 464 273 456 q 243 480 248 471 q 239 499 239 488 q 256 531 239 519 q 309 544 273 544 q 416 527 357 544 q 529 480 474 510 l 555 639 q 440 676 503 663 q 308 690 376 690 q 119 632 185 690 q 53 478 53 574 q 66 396 53 430 q 109 338 80 363 q 183 295 138 313 q 290 260 228 277 q 348 244 326 252 q 382 227 369 235 q 399 209 394 219 q 404 187 404 199 q 319 136 404 136 q 195 157 262 136 q 67 216 127 179 l 43 56 q 166 9 95 29 q 318 -11 238 -11 q 521 45 451 -11 q 592 209 592 101 "},"B":{"x_min":86,"x_max":760,"ha":801,"o":"m 760 276 q 712 427 760 373 q 589 507 665 481 q 685 582 646 533 q 724 709 724 630 q 645 892 724 827 q 405 958 566 958 l 86 958 l 86 0 l 399 0 q 664 68 568 0 q 760 276 760 137 m 517 683 q 483 600 517 630 q 384 571 449 571 l 307 571 l 307 787 l 389 787 q 487 759 457 787 q 517 683 517 731 m 541 291 q 502 200 541 230 q 392 171 463 171 l 307 171 l 307 418 l 390 418 q 502 386 463 418 q 541 291 541 354 "},"…":{"x_min":69,"x_max":989,"ha":1058,"o":"m 989 0 l 989 237 l 773 237 l 773 0 l 989 0 m 638 0 l 638 237 l 422 237 l 422 0 l 638 0 m 287 0 l 287 237 l 69 237 l 69 0 l 287 0 "},"?":{"x_min":35.078125,"x_max":654,"ha":688,"o":"m 399 0 l 399 239 l 178 239 l 178 0 l 399 0 m 367 395 q 580 515 506 441 q 654 709 654 588 q 574 905 654 835 q 350 976 494 976 q 172 948 248 976 q 35 878 96 920 l 63 684 q 189 755 123 727 q 320 783 255 783 q 406 758 377 783 q 436 691 436 734 q 396 607 436 641 q 255 542 356 573 l 220 529 l 220 318 l 363 350 l 367 395 "},"H":{"x_min":86,"x_max":877,"ha":963,"o":"m 877 0 l 877 958 l 644 958 l 644 600 l 319 600 l 319 958 l 86 958 l 86 0 l 319 0 l 319 392 l 644 392 l 644 0 l 877 0 "},"c":{"x_min":38,"x_max":572.671875,"ha":614,"o":"m 572 49 l 548 219 q 468 179 504 191 q 395 167 432 167 q 289 210 333 167 q 246 340 246 253 q 286 468 246 426 q 388 511 326 511 q 465 499 429 511 q 540 461 500 487 l 567 639 q 478 677 526 663 q 368 691 429 691 q 240 668 300 691 q 135 602 180 646 q 64 491 91 557 q 38 334 38 424 q 61 188 38 252 q 127 79 84 123 q 229 11 169 35 q 360 -12 288 -12 q 471 2 420 -12 q 572 49 522 17 "},"&":{"x_min":37,"x_max":916.703125,"ha":902,"o":"m 916 22 l 731 241 q 821 533 796 359 l 647 572 q 630 472 640 517 q 607 388 621 427 l 415 612 q 372 669 385 645 q 360 721 360 694 q 380 773 360 752 q 443 794 400 794 q 539 775 489 794 q 643 728 590 757 l 673 914 q 562 958 626 941 q 421 976 498 976 q 218 910 291 976 q 145 735 145 845 q 163 627 145 673 q 221 530 182 581 q 88 415 139 481 q 37 247 37 348 q 58 136 37 184 q 121 53 80 87 q 219 2 162 19 q 347 -15 276 -15 q 605 84 496 -15 l 686 -8 l 916 22 m 504 205 q 382 153 448 153 q 284 186 319 153 q 249 272 249 219 q 268 345 249 312 q 327 408 287 377 l 504 205 "},"I":{"x_min":91,"x_max":324,"ha":415,"o":"m 324 0 l 324 958 l 91 958 l 91 0 l 324 0 "},"•":{"x_min":95.28125,"x_max":560.78125,"ha":656,"o":"m 560 477 l 528 695 l 328 727 l 129 695 l 95 477 l 129 260 l 328 229 l 528 260 l 560 477 "},"G":{"x_min":52,"x_max":858,"ha":929,"o":"m 858 83 l 858 550 l 464 550 l 491 374 l 655 374 l 655 202 q 597 179 626 187 q 528 172 567 172 q 421 194 467 172 q 345 257 376 216 q 299 354 314 298 q 285 478 285 410 q 299 600 285 545 q 344 696 314 656 q 419 757 374 735 q 525 780 464 780 q 661 756 599 780 q 776 698 723 732 l 807 905 q 678 956 750 937 q 520 976 607 976 q 324 939 411 976 q 177 837 238 903 q 84 680 117 771 q 52 477 52 588 q 82 275 52 366 q 171 119 113 184 q 316 18 230 54 q 514 -18 403 -18 q 698 8 612 -18 q 858 83 784 34 "},"(":{"x_min":61,"x_max":529.1875,"ha":555,"o":"m 529 -93 q 421 34 466 -26 q 347 156 376 94 q 304 286 318 219 q 291 433 291 353 q 303 567 291 506 q 340 680 315 628 q 401 777 364 732 q 487 866 438 823 l 466 1007 q 166 775 271 916 q 61 430 61 634 q 83 256 61 334 q 146 110 105 177 q 244 -15 187 43 q 371 -130 301 -74 l 529 -93 "},"`":{"x_min":130.671875,"x_max":464.140625,"ha":618,"o":"m 464 759 l 382 968 l 130 926 l 329 759 l 464 759 "},"U":{"x_min":75,"x_max":862,"ha":937,"o":"m 862 380 l 862 958 l 628 958 l 628 377 q 588 235 628 286 q 468 185 548 185 q 349 236 389 185 q 309 380 309 287 l 309 958 l 75 958 l 75 379 q 103 205 75 279 q 183 81 132 130 q 307 8 235 32 q 465 -15 380 -15 q 623 9 551 -15 q 749 82 695 33 q 832 206 802 132 q 862 380 862 280 "},"◊":{"x_min":90.828125,"x_max":1038,"ha":1105,"o":"m 1038 479 l 1038 958 l 863 958 l 772 645 l 681 958 l 501 958 l 501 479 l 604 479 l 604 777 l 701 476 l 818 476 l 915 777 l 915 479 l 1038 479 m 247 472 q 366 507 318 472 q 415 619 415 542 q 406 672 415 649 q 380 712 398 695 q 336 745 363 730 q 271 776 309 760 q 224 803 236 791 q 212 831 212 815 q 222 855 212 845 q 256 865 233 865 q 378 823 308 865 l 393 931 q 333 955 365 946 q 258 965 301 965 q 145 927 191 965 q 99 821 99 890 q 106 769 99 791 q 130 731 113 748 q 171 699 146 713 q 232 669 197 684 q 285 641 271 653 q 299 609 299 628 q 286 581 299 591 q 251 572 273 572 q 182 584 218 572 q 108 619 146 597 l 90 510 q 165 481 127 491 q 247 472 203 472 "},"F":{"x_min":86,"x_max":647.75,"ha":685,"o":"m 647 760 l 647 958 l 86 958 l 86 0 l 317 0 l 317 364 l 594 364 l 562 565 l 317 565 l 317 760 l 647 760 "},"r":{"x_min":71,"x_max":501.578125,"ha":514,"o":"m 501 477 l 467 691 q 348 647 394 691 q 272 545 302 603 l 251 680 l 71 680 l 71 0 l 277 0 l 277 377 q 370 448 315 419 q 501 477 426 477 "},":":{"x_min":72,"x_max":293,"ha":364,"o":"m 293 444 l 293 680 l 72 680 l 72 444 l 293 444 m 293 0 l 293 236 l 72 236 l 72 0 l 293 0 "},"x":{"x_min":20.421875,"x_max":654.703125,"ha":675,"o":"m 654 16 l 450 360 l 643 680 l 449 680 l 347 496 l 243 689 l 29 663 l 223 335 l 20 0 l 216 0 l 326 199 l 441 -9 l 654 16 "},"*":{"x_min":42.1875,"x_max":553.96875,"ha":596,"o":"m 553 757 l 539 801 l 364 801 l 323 966 l 270 966 l 231 801 l 57 801 l 42 757 l 187 662 l 123 497 l 164 469 l 298 580 l 430 469 l 472 497 l 408 662 l 553 757 "},"†":{"x_min":53,"x_max":644,"ha":697,"o":"m 441 848 l 441 958 l 257 958 l 257 848 l 325 661 l 371 661 l 441 848 m 644 518 l 644 694 l 586 694 l 403 629 l 403 583 l 586 518 l 644 518 m 294 583 l 294 629 l 110 694 l 53 694 l 53 518 l 110 518 l 294 583 m 423 15 l 423 387 l 371 553 l 325 553 l 272 387 l 272 15 l 326 -158 l 368 -158 l 423 15 "},"V":{"x_min":17.6875,"x_max":924.203125,"ha":942,"o":"m 924 958 l 684 958 l 480 295 l 270 967 l 17 928 l 347 -4 l 585 -4 l 924 958 "},"h":{"x_min":71,"x_max":664,"ha":731,"o":"m 664 0 l 664 483 q 616 638 664 582 q 475 694 568 694 q 366 665 414 694 q 277 595 318 637 l 277 1002 l 71 968 l 71 0 l 277 0 l 277 446 q 331 491 304 474 q 389 508 359 508 q 441 485 425 508 q 457 426 457 462 l 457 0 l 664 0 "},"0":{"x_min":49,"x_max":814,"ha":863,"o":"m 814 469 q 786 677 814 586 q 709 830 759 768 q 588 924 658 892 q 432 956 518 956 q 276 924 347 956 q 155 830 205 892 q 76 677 104 768 q 49 469 49 586 q 76 260 49 351 q 155 107 104 169 q 276 13 205 45 q 432 -18 347 -18 q 588 13 518 -18 q 709 107 658 45 q 786 260 759 169 q 814 469 814 351 m 589 469 q 550 237 589 317 q 432 158 512 158 q 313 237 352 158 q 275 469 275 317 q 313 700 275 620 q 432 780 352 780 q 550 700 512 780 q 589 469 589 620 "},".":{"x_min":67,"x_max":288,"ha":352,"o":"m 288 0 l 288 239 l 67 239 l 67 0 l 288 0 "},"”":{"x_min":72,"x_max":623.640625,"ha":655,"o":"m 315 958 l 72 958 l 72 549 l 179 520 l 315 958 m 623 958 l 380 958 l 380 549 l 486 520 l 623 958 "},"@":{"x_min":52,"x_max":1084,"ha":1137,"o":"m 623 294 q 557 225 583 244 q 506 206 530 206 q 469 222 483 206 q 456 278 456 238 q 467 369 456 326 q 499 443 479 412 q 546 492 519 474 q 603 511 573 511 q 631 508 617 511 q 656 502 645 505 l 623 294 m 628 180 q 698 97 647 127 q 814 67 748 67 q 928 92 878 67 q 1013 166 979 118 q 1066 282 1048 214 q 1084 433 1084 350 q 1051 626 1084 541 q 958 770 1018 712 q 815 859 898 828 q 629 890 731 890 q 405 839 510 890 q 221 702 299 788 q 97 502 143 616 q 52 264 52 388 q 83 64 52 150 q 175 -78 115 -21 q 319 -164 234 -135 q 510 -194 404 -194 q 679 -175 601 -194 q 814 -128 756 -156 l 805 -78 q 671 -127 744 -110 q 516 -145 597 -145 q 353 -122 427 -145 q 225 -49 279 -99 q 141 76 171 0 q 112 265 112 154 q 153 491 112 386 q 265 674 195 597 q 429 795 336 751 q 623 840 521 840 q 784 815 710 840 q 911 740 857 790 q 994 613 964 690 q 1024 431 1024 535 q 978 223 1024 297 q 865 150 933 150 q 800 172 819 150 q 781 226 781 195 q 781 264 781 246 q 785 297 781 282 l 830 594 q 724 626 782 613 q 607 640 667 640 q 484 611 541 640 q 384 531 427 583 q 317 407 341 479 q 293 248 293 336 q 335 113 293 159 q 441 67 378 67 q 535 94 491 67 q 628 180 579 122 "},"f":{"x_min":18,"x_max":472.15625,"ha":465,"o":"m 472 820 l 447 982 q 409 986 429 984 q 364 989 389 989 q 179 937 248 989 q 111 764 111 886 l 111 680 l 18 680 l 18 509 l 111 509 l 111 0 l 317 0 l 317 509 l 462 509 l 438 680 l 317 680 l 317 742 q 398 825 317 825 q 438 825 420 825 q 472 820 457 825 "},";":{"x_min":22.828125,"x_max":315.96875,"ha":364,"o":"m 301 444 l 301 680 l 80 680 l 80 444 l 301 444 m 315 236 l 82 236 l 22 -176 l 146 -205 l 315 236 "},"“":{"x_min":31.375,"x_max":581,"ha":655,"o":"m 275 941 l 168 970 l 31 533 l 275 533 l 275 941 m 581 941 l 474 970 l 338 533 l 581 533 l 581 941 "},"i":{"x_min":61,"x_max":295,"ha":356,"o":"m 295 881 q 261 964 295 933 q 178 995 228 995 q 95 964 129 995 q 61 881 61 933 q 95 799 61 830 q 178 769 129 769 q 261 799 228 769 q 295 881 295 830 m 282 0 l 282 680 l 75 680 l 75 0 l 282 0 "},"6":{"x_min":49,"x_max":745,"ha":786,"o":"m 261 527 q 386 686 295 627 q 608 775 478 744 l 580 958 q 369 888 465 934 q 200 771 272 842 q 89 602 129 699 q 49 379 49 505 q 74 207 49 281 q 147 83 100 133 q 259 7 194 33 q 403 -18 324 -18 q 537 5 475 -18 q 646 72 600 29 q 718 175 691 115 q 745 311 745 236 q 724 436 745 383 q 668 525 704 490 q 584 578 631 561 q 483 596 536 596 q 364 578 417 596 q 261 527 311 561 m 253 377 q 328 418 291 404 q 404 432 364 432 q 534 297 534 432 q 498 188 534 227 q 402 150 462 150 q 295 204 337 150 q 253 377 253 259 "},"A":{"x_min":17.6875,"x_max":937.8125,"ha":956,"o":"m 937 29 l 611 961 l 355 961 l 17 0 l 245 0 l 310 198 l 632 198 l 703 -9 l 937 29 m 577 384 l 364 384 l 470 717 l 577 384 "},"‘":{"x_min":31.28125,"x_max":279,"ha":351,"o":"m 279 941 l 168 970 l 31 533 l 279 533 l 279 941 "},"n":{"x_min":71,"x_max":664,"ha":731,"o":"m 664 0 l 664 483 q 616 638 664 582 q 475 694 568 694 q 361 662 411 694 q 267 587 312 631 l 252 680 l 71 680 l 71 0 l 277 0 l 277 446 q 331 491 304 474 q 389 508 359 508 q 441 485 425 508 q 457 426 457 462 l 457 0 l 664 0 "},"O":{"x_min":52,"x_max":949,"ha":1001,"o":"m 949 480 q 917 682 949 591 q 827 838 885 773 q 686 939 769 903 q 501 976 603 976 q 316 939 399 976 q 174 837 233 903 q 83 680 115 771 q 52 477 52 588 q 83 275 52 366 q 174 119 115 184 q 315 18 233 54 q 498 -18 397 -18 q 684 18 600 -18 q 826 120 767 54 q 917 277 885 186 q 949 480 949 369 m 715 479 q 658 251 715 335 q 500 168 602 168 q 341 251 397 168 q 285 479 285 335 q 341 706 285 622 q 500 790 397 790 q 658 706 602 790 q 715 479 715 622 "},"3":{"x_min":42.296875,"x_max":692,"ha":742,"o":"m 692 262 q 645 409 692 355 q 514 491 598 463 q 631 568 585 517 q 677 709 677 618 q 593 887 677 818 q 354 956 509 956 q 186 931 262 956 q 55 869 110 907 l 84 692 q 196 749 136 728 q 319 770 256 770 q 452 677 452 770 q 411 598 452 628 q 272 569 370 569 l 186 569 l 213 399 l 269 399 q 424 369 378 399 q 470 278 470 340 q 431 196 470 224 q 324 168 392 168 q 191 186 254 168 q 70 237 128 205 l 42 55 q 177 2 100 22 q 344 -18 254 -18 q 482 0 419 -18 q 592 53 546 18 q 665 141 638 88 q 692 262 692 194 "},"]":{"x_min":47.703125,"x_max":472,"ha":569,"o":"m 472 -144 l 472 958 l 47 958 l 68 830 l 275 830 l 275 -15 l 54 -15 l 54 -144 l 472 -144 "},"m":{"x_min":71,"x_max":1038,"ha":1105,"o":"m 1038 0 l 1038 483 q 990 638 1038 582 q 848 694 942 694 q 735 663 786 694 q 640 587 685 632 q 582 663 621 632 q 474 694 543 694 q 360 664 409 694 q 267 587 312 634 l 252 680 l 71 680 l 71 0 l 277 0 l 277 448 q 330 492 304 476 q 385 508 357 508 q 436 485 421 508 q 451 426 451 462 l 451 0 l 657 0 l 657 448 q 711 492 684 476 q 765 508 738 508 q 816 485 801 508 q 831 426 831 462 l 831 0 l 1038 0 "},"9":{"x_min":41,"x_max":736,"ha":785,"o":"m 521 398 q 393 245 485 300 q 166 163 300 189 l 192 -19 q 409 48 310 2 q 581 165 508 94 q 695 334 654 237 q 736 559 736 432 q 710 730 736 656 q 637 854 684 804 q 525 930 590 904 q 381 956 459 956 q 246 932 308 956 q 138 865 183 908 q 66 759 92 821 q 41 620 41 697 q 60 491 41 546 q 116 400 80 436 q 201 347 152 364 q 307 330 250 330 q 418 348 366 330 q 521 398 470 366 m 532 545 q 382 494 457 494 q 252 635 252 494 q 288 748 252 708 q 382 788 324 788 q 489 731 447 788 q 532 548 532 674 l 532 545 "},"l":{"x_min":75,"x_max":282,"ha":357,"o":"m 282 0 l 282 1002 l 75 968 l 75 0 l 282 0 "},"8":{"x_min":48,"x_max":753,"ha":802,"o":"m 438 563 q 316 629 350 598 q 282 705 282 660 q 312 778 282 749 q 399 808 343 808 q 489 779 456 808 q 523 702 523 751 q 500 626 523 659 q 438 563 478 592 m 354 420 q 443 380 407 398 q 501 343 479 362 q 532 303 523 324 q 541 255 541 283 q 501 171 541 202 q 404 140 461 140 q 298 173 340 140 q 256 266 256 206 q 283 351 256 313 q 354 420 310 389 m 212 488 q 91 382 135 444 q 48 244 48 320 q 70 143 48 191 q 137 59 92 95 q 247 2 181 23 q 400 -18 313 -18 q 547 2 482 -18 q 658 59 612 23 q 728 146 704 95 q 753 258 753 197 q 711 399 753 344 q 587 496 670 455 q 689 592 652 538 q 726 715 726 647 q 703 812 726 767 q 640 888 681 856 q 540 938 599 920 q 407 957 480 957 q 276 939 336 957 q 171 889 215 922 q 103 808 128 856 q 78 701 78 761 q 113 578 78 630 q 212 488 148 527 "},"p":{"x_min":71,"x_max":697,"ha":741,"o":"m 697 357 q 678 507 697 443 q 628 611 660 570 q 552 673 596 653 q 457 693 509 693 q 397 684 425 693 q 346 661 370 675 q 303 628 323 646 q 266 590 283 609 l 252 680 l 71 680 l 71 -258 l 277 -226 l 277 16 q 338 0 305 6 q 416 -7 372 -7 q 522 13 471 -7 q 612 79 573 34 q 673 192 650 123 q 697 357 697 260 m 491 344 q 456 201 491 244 q 370 158 421 158 q 318 162 339 158 q 277 178 298 167 l 277 437 q 329 488 302 469 q 390 507 356 507 q 462 468 434 507 q 491 344 491 430 "},"4":{"x_min":35,"x_max":804,"ha":830,"o":"m 804 187 l 804 344 l 675 344 l 675 939 l 422 939 l 35 331 l 35 187 l 461 187 l 461 0 l 675 0 l 675 187 l 804 187 m 461 344 l 225 344 l 461 715 l 461 344 "},"‡":{"x_min":65,"x_max":656,"ha":723,"o":"m 453 847 l 453 957 l 269 957 l 269 847 l 337 660 l 383 660 l 453 847 m 656 523 l 656 690 l 598 690 l 415 628 l 415 582 l 598 523 l 656 523 m 306 582 l 306 628 l 122 690 l 65 690 l 65 523 l 122 523 l 306 582 m 445 319 l 445 387 l 383 552 l 337 552 l 276 387 l 276 319 l 337 154 l 383 154 l 445 319 m 656 16 l 656 183 l 598 183 l 415 121 l 415 75 l 598 16 l 656 16 m 306 75 l 306 121 l 122 183 l 65 183 l 65 16 l 122 16 l 306 75 m 453 -253 l 453 -143 l 383 45 l 337 45 l 269 -143 l 269 -253 l 453 -253 "},"R":{"x_min":86,"x_max":825.359375,"ha":838,"o":"m 546 641 q 504 536 546 572 q 387 500 462 500 l 315 500 l 315 779 l 390 779 q 506 743 466 779 q 546 641 546 708 m 600 383 q 730 488 685 420 q 775 655 775 555 q 680 880 775 803 q 414 958 585 958 l 86 958 l 86 0 l 317 0 l 317 329 l 381 329 l 586 -9 l 825 30 l 600 383 "},"o":{"x_min":38,"x_max":679,"ha":717,"o":"m 679 340 q 654 487 679 421 q 587 598 630 552 q 485 669 544 644 q 357 694 427 694 q 229 669 288 694 q 128 598 171 644 q 61 486 85 552 q 38 338 38 420 q 61 191 38 256 q 128 80 85 126 q 229 10 171 34 q 356 -14 287 -14 q 485 10 425 -14 q 587 81 544 35 q 654 192 630 127 q 679 340 679 258 m 480 338 q 448 205 480 255 q 357 155 417 155 q 268 206 299 155 q 236 340 236 256 q 267 472 236 423 q 357 522 297 522 q 448 472 417 522 q 480 338 480 422 "},"5":{"x_min":46.640625,"x_max":707,"ha":756,"o":"m 707 313 q 684 437 707 384 q 622 527 662 491 q 527 582 582 563 q 404 601 471 601 q 328 596 360 601 q 279 584 296 591 l 279 751 l 685 751 l 656 938 l 97 938 l 97 429 l 221 397 q 280 416 249 408 q 354 425 311 425 q 458 393 422 425 q 495 302 495 361 q 448 204 495 237 q 330 171 402 171 q 197 191 260 171 q 76 239 133 211 l 46 45 q 178 0 107 18 q 332 -18 248 -18 q 483 3 414 -18 q 601 66 551 25 q 679 170 651 108 q 707 313 707 231 "}}}
